# xmcd CD database file
#
# Track frame offsets:
#	150
#	27426
#	50707
#	71904
#	102842
#	120838
#	159034
#	181399
#	208726
#	232274
#
# Disc length: 3367 seconds
#
# Revision: 0
# Processed by: cddbd v1.5.2PL0 Copyright (c) Steve Scherf et al.
# Submitted via: CDex 1.51
#
DISCID=880d250a
DTITLE=Kate Williams Trio - Scenes and Dreams
DYEAR=2005
DGENRE=Jazz
TTITLE0=Disparity
TTITLE1=I'm Still Awake
TTITLE2=Still
TTITLE3=Silver Birch
TTITLE4=Topspin
TTITLE5=Day Dream
TTITLE6=Mutley's Medal
TTITLE7=The Scenic Route
TTITLE8=Monk's Dream
TTITLE9=Water's Edge
EXTD=YEAR: 2005
EXTT0=
EXTT1=
EXTT2=
EXTT3=
EXTT4=
EXTT5=
EXTT6=
EXTT7=
EXTT8=
EXTT9=
PLAYORDER=
